# xmcd
#
# Track frame offsets:
#	183
#	12388
#	26380
#	39468
#	55680
#	73145
#	87905
#	105273
#	116098
#	134350
#	149423
#	166485
#
# Disc length: 2495 seconds
#
# Revision: 0
# Processed by: cddbd v1.4PL0 Copyright (c) Steve Scherf et al.
# Submitted via: dBpowerAMP V4.0
#
DISCID=9f09bd0c
DTITLE=Henk Wijngaard - Ik ben voor de liefde
DYEAR=1994
DGENRE=Dutch
TTITLE0=Ik ben voor de liefde
TTITLE1=Ik heb jou
TTITLE2=Hou je vast aan mij
TTITLE3=Heimwee naar jou
TTITLE4=Een truck vol Herinneringen
TTITLE5=Carolien, ik droomde
TTITLE6=Ik keer terug naar jou
TTITLE7=De vrouw die naast mijn ligt
TTITLE8=Rosemarie laat me slapen
TTITLE9=Ik ben geen dichter, geen poeet
TTITLE10=Gaan als de wind
TTITLE11=De uitweg
EXTD=
EXTT0=
EXTT1=
EXTT2=
EXTT3=
EXTT4=
EXTT5=
EXTT6=
EXTT7=
EXTT8=
EXTT9=
EXTT10=
EXTT11=
PLAYORDER=
